<svg width="19" height="34" viewBox="0 0 19 34" fill="none" xmlns="http://www.w3.org/2000/svg">
<path d="M3.20765 33.6866C2.61028 33.6877 2.03136 33.4963 1.57138 33.1457C1.3125 32.9483 1.0985 32.7058 0.941645 32.4321C0.784789 32.1585 0.688156 31.8591 0.657282 31.551C0.626408 31.243 0.6619 30.9324 0.761724 30.6369C0.861547 30.3415 1.02374 30.0671 1.23902 29.8295L12.6929 17.2232L1.64809 4.59332C1.43571 4.35275 1.27712 4.07594 1.18142 3.7788C1.08572 3.48165 1.0548 3.17004 1.09044 2.86187C1.12607 2.55371 1.22757 2.25505 1.38908 1.98309C1.55059 1.71112 1.76895 1.47119 2.03158 1.27711C2.29611 1.06299 2.60589 0.901494 2.94149 0.802739C3.27708 0.703984 3.63124 0.670107 3.98174 0.703234C4.33225 0.73636 4.67152 0.835776 4.97827 0.995241C5.28503 1.15471 5.55264 1.37078 5.76432 1.62989L18.113 15.7415C18.4891 16.1623 18.6946 16.6902 18.6946 17.2349C18.6946 17.7797 18.4891 18.3076 18.113 18.7284L5.32968 32.84C5.07321 33.1246 4.7474 33.3496 4.37871 33.4967C4.01001 33.6438 3.60881 33.7089 3.20765 33.6866Z" fill="#231F20"/>
</svg>
