<svg width="19" height="34" viewBox="0 0 19 34" fill="none" xmlns="http://www.w3.org/2000/svg">
<path d="M15.7923 33.6866C16.3897 33.6877 16.9686 33.4963 17.4286 33.1457C17.6875 32.9483 17.9015 32.7058 18.0584 32.4321C18.2152 32.1585 18.3118 31.8591 18.3427 31.551C18.3736 31.243 18.3381 30.9324 18.2383 30.6369C18.1385 30.3415 17.9763 30.0671 17.761 29.8295L6.30711 17.2232L17.3519 4.59332C17.5643 4.35275 17.7229 4.07594 17.8186 3.7788C17.9143 3.48165 17.9452 3.17004 17.9096 2.86187C17.8739 2.55371 17.7724 2.25505 17.6109 1.98309C17.4494 1.71112 17.2311 1.47119 16.9684 1.27711C16.7039 1.06299 16.3941 0.901494 16.0585 0.802739C15.7229 0.703984 15.3688 0.670107 15.0183 0.703234C14.6678 0.73636 14.3285 0.835776 14.0217 0.995241C13.715 1.15471 13.4474 1.37078 13.2357 1.62989L0.886982 15.7415C0.510942 16.1623 0.305372 16.6902 0.305372 17.2349C0.305372 17.7797 0.510942 18.3076 0.886982 18.7284L13.6703 32.84C13.9268 33.1246 14.2526 33.3496 14.6213 33.4967C14.99 33.6438 15.3912 33.7089 15.7923 33.6866Z" fill="#231F20"/>
</svg>
